<svg viewBox="0 0 100 100" xmlns="http://www.w3.org/2000/svg" xmlns:xlink="http://www.w3.org/1999/xlink"><style>.cls-1,.cls-2,.cls-3,.cls-4,.cls-5,.cls-6{fill-rule:evenodd}.cls-1{fill:url(#linear-gradient)}.cls-2{fill:url(#linear-gradient-2)}.cls-3{fill:url(#linear-gradient-3)}.cls-4{fill:url(#linear-gradient-4)}.cls-5{fill:url(#linear-gradient-5)}.cls-6{fill:url(#linear-gradient-6)}</style><linearGradient id="linear-gradient" x1="8.53" y1="50.26" x2="69.14" y2="92.7" gradientUnits="userSpaceOnUse"><stop offset="0" stop-color="#005181"/><stop offset="0.27" stop-color="#025e9a"/><stop offset="0.49" stop-color="#036ab1"/><stop offset="0.57" stop-color="#0263a1"/><stop offset="0.72" stop-color="#01598d"/><stop offset="0.86" stop-color="#005380"/><stop offset="1" stop-color="#00517c"/></linearGradient><linearGradient id="linear-gradient-2" x1="17.81" y1="21.81" x2="87.59" y2="70.67" gradientUnits="userSpaceOnUse"><stop offset="0" stop-color="#006283"/><stop offset="0.31" stop-color="#026f9c"/><stop offset="0.49" stop-color="#0377ac"/><stop offset="0.74" stop-color="#016ca1"/><stop offset="1" stop-color="#00689d"/></linearGradient><linearGradient id="linear-gradient-3" x1="50.53" y1="9.58" x2="95.36" y2="40.97" gradientUnits="userSpaceOnUse"><stop offset="0" stop-color="#007783"/><stop offset="0.28" stop-color="#02889c"/><stop offset="0.49" stop-color="#0397b1"/><stop offset="0.54" stop-color="#0394ae"/><stop offset="0.77" stop-color="#0187a1"/><stop offset="1" stop-color="#00839d"/></linearGradient><linearGradient id="linear-gradient-4" x1="31.96" y1="7.29" x2="90.83" y2="48.51" gradientUnits="userSpaceOnUse"><stop offset="0" stop-color="#00c7c7"/><stop offset="0.01" stop-color="#02c8c8"/><stop offset="0.16" stop-color="#30dade"/><stop offset="0.3" stop-color="#51e7ee"/><stop offset="0.41" stop-color="#66eff8"/><stop offset="0.49" stop-color="#6df2fc"/><stop offset="0.62" stop-color="#4ae6ee"/><stop offset="0.79" stop-color="#22d8df"/><stop offset="0.92" stop-color="#09d0d6"/><stop offset="1" stop-color="#00cdd2"/></linearGradient><linearGradient id="linear-gradient-5" x1="14.78" y1="26.09" x2="84.58" y2="74.97" gradientUnits="userSpaceOnUse"><stop offset="0" stop-color="#1c95dc"/><stop offset="0.17" stop-color="#44bceb"/><stop offset="0.35" stop-color="#6ae2f9"/><stop offset="0.44" stop-color="#79f0ff"/><stop offset="0.78" stop-color="#41bde9"/><stop offset="1" stop-color="#219fdc"/></linearGradient><linearGradient id="linear-gradient-6" x1="4.3" y1="55.84" x2="50.57" y2="91.99" gradientUnits="userSpaceOnUse"><stop offset="0" stop-color="#0068a2"/><stop offset="0.26" stop-color="#017dbb"/><stop offset="0.49" stop-color="#0392d4"/><stop offset="0.49" stop-color="#0392d3"/><stop offset="0.67" stop-color="#0180bf"/><stop offset="0.84" stop-color="#0076b2"/><stop offset="1" stop-color="#0072ae"/></linearGradient><path class="cls-1" d="M7.5,51.74a43.06,43.06,0,0,0,4,16.32A67.66,67.66,0,0,1,24,69.86a71.93,71.93,0,0,1,13.85,4.86A73.75,73.75,0,0,1,50.55,82.3a76.07,76.07,0,0,1,10,9,42.32,42.32,0,0,0,14.12-6.54C55.78,63.28,36.14,54.44,7.5,51.74Z"/><path class="cls-2" d="M17.34,22.7A45.74,45.74,0,0,0,10,35.51c26.32,2.12,55.76,7.35,75,38.87,4.18-6.66,5.61-10.85,6.24-13.42C73.92,33.86,45.33,25.42,17.34,22.7Z"/><path class="cls-3" d="M88.62,31.81C81.2,28,72.29,18.49,69.33,12A42.38,42.38,0,0,0,52.05,7.42C57.53,25.61,73.3,40.26,92.41,45.19a52.51,52.51,0,0,0-3.79-13.38Z"/><path class="cls-4" d="M56.33,38.38a75.41,75.41,0,0,0,18,6A92.67,92.67,0,0,0,92.5,46.12a42.69,42.69,0,0,0-3.88-14.31,81.09,81.09,0,0,1-13.19-1.75A59.38,59.38,0,0,1,62.38,25.5a55.31,55.31,0,0,1-11.55-7.69,88.18,88.18,0,0,1-9.46-9.55A42.39,42.39,0,0,0,27.29,14a90.33,90.33,0,0,0,13,13.84A74.68,74.68,0,0,0,56.33,38.38Z"/><path class="cls-5" d="M91.24,61C75.36,60.57,61.71,57,49.59,50.54S27.05,34.76,17.34,22.7A42.49,42.49,0,0,0,10,35.51c9.59,12.06,20.47,21.47,32.84,28S69.29,73.81,85,74.38A42.36,42.36,0,0,0,91.24,61Z"/><path class="cls-6" d="M12.24,69.6c7.24,3.52,16,11.22,19.34,18.78a42.55,42.55,0,0,0,18.49,4.2h0a66.92,66.92,0,0,0-16-24.25c-7.29-7-16.23-12.43-26.57-16.59A42.57,42.57,0,0,0,12.24,69.6Z"/></svg>